<svg width="1440" height="998" viewBox="0 0 1440 998" fill="none" xmlns="http://www.w3.org/2000/svg">
<path d="M866.736 891.451L555.915 891.451L715.753 534.52L866.736 891.451Z" fill="#F7DE1C"/>
<path d="M885.529 111.451L572.68 111.451L715.752 538.52L885.529 111.451Z" fill="#F7DE1C"/>
<path d="M1237.68 109.451L1003.08 109.451L702.4 563.412L1237.68 109.451Z" fill="#05C1F1"/>
<path d="M192.887 111.451L426.733 111.451L735.615 570.143L192.887 111.451Z" fill="#05C1F1"/>
<path d="M1193.4 888.951L964.613 888.951L713.415 517.433L1193.4 888.951Z" fill="#05C1F1"/>
<path d="M248.855 889.951L464.908 889.951L722.767 509.48L248.855 889.951Z" fill="#05C1F1"/>
<path d="M0 333.951L-2.51044e-05 744.951L715 535.013L0 333.951Z" fill="#F7DE1C"/>
<path d="M1440 333.951L1440 744.951L715 535.013L1440 333.951Z" fill="#F7DE1C"/>
<path d="M1013.37 501.523L882.305 477.612L820.181 466.285C789.119 460.496 764.623 436.334 759.067 405.376L746.946 340.187L722.955 209.558C721.44 200.749 708.56 200.749 707.045 209.558L683.054 340.187L670.932 405.376C665.124 436.334 640.881 460.748 609.819 466.285L547.695 477.612L416.629 501.523C407.79 503.033 407.79 515.869 416.629 517.379L547.695 541.29L609.819 552.616C640.881 558.405 665.377 582.568 670.932 613.526L683.054 678.715L707.045 809.344C708.56 818.153 721.44 818.153 722.955 809.344L746.946 678.715L759.067 613.526C764.876 582.568 789.119 558.154 820.181 552.616L882.305 541.29L1013.37 517.379C1022.21 515.869 1022.21 503.284 1013.37 501.523Z" fill="#FF4431"/>
<path d="M663.624 547.951V532.975H638.408V523.247L664.136 472.303H675.912V524.655H683.464V532.975H675.912V547.951H663.624ZM648.264 524.655H663.624V493.935L648.264 524.655ZM710.594 549.615C706.583 549.529 702.999 548.676 699.842 547.055C696.77 545.348 694.338 542.703 692.546 539.119C690.839 535.535 689.986 530.799 689.986 524.911V493.423C689.986 485.913 691.949 480.367 695.874 476.783C699.799 473.199 704.791 471.407 710.85 471.407C716.738 471.407 721.602 473.199 725.442 476.783C729.282 480.367 731.202 485.913 731.202 493.423V524.783C731.202 530.756 730.306 535.577 728.514 539.247C726.807 542.916 724.375 545.561 721.218 547.183C718.146 548.804 714.605 549.615 710.594 549.615ZM710.594 542.191C712.983 542.191 714.989 541.252 716.61 539.375C718.231 537.412 719.042 534.596 719.042 530.927V490.223C719.042 486.468 718.189 483.652 716.482 481.775C714.861 479.812 712.898 478.831 710.594 478.831C708.205 478.831 706.199 479.812 704.578 481.775C702.957 483.652 702.146 486.468 702.146 490.223V530.927C702.146 534.596 702.957 537.412 704.578 539.375C706.199 541.252 708.205 542.191 710.594 542.191ZM762.624 547.951V532.975H737.408V523.247L763.136 472.303H774.912V524.655H782.464V532.975H774.912V547.951H762.624ZM747.264 524.655H762.624V493.935L747.264 524.655Z" fill="#F7DE1C"/>
</svg>
