<svg width="1440" height="960" viewBox="0 0 1440 960" fill="none" xmlns="http://www.w3.org/2000/svg">
<path d="M916.325 989.569L506.325 989.569L715.752 447.569L916.325 989.569Z" fill="#F7DE1C"/>
<path d="M916.325 -90.4307L506.325 -90.4306L715.752 451.569L916.325 -90.4307Z" fill="#F7DE1C"/>
<path d="M1271.66 -11.4775L1115.95 -173L702.401 476.461L1271.66 -11.4775Z" fill="#05C1F1"/>
<path d="M149.567 -18.819L321.184 -158.316L735.614 483.192L149.567 -18.819Z" fill="#05C1F1"/>
<path d="M1292.15 900.758L1120.54 1072.07L713.414 430.483L1292.15 900.758Z" fill="#05C1F1"/>
<path d="M151.096 900.758L309.56 1072.07L722.766 422.529L151.096 900.758Z" fill="#05C1F1"/>
<path d="M0 247L-2.51044e-05 658L715 448.062L0 247Z" fill="#F7DE1C"/>
<path d="M1440 247L1440 658L715 448.062L1440 247Z" fill="#F7DE1C"/>
<path d="M1013.37 414.572L882.305 390.661L820.181 379.335C789.119 373.546 764.623 349.383 759.067 318.425L746.946 253.236L722.955 122.607C721.44 113.798 708.56 113.798 707.045 122.607L683.054 253.236L670.932 318.425C665.124 349.383 640.881 373.797 609.819 379.335L547.695 390.661L416.629 414.572C407.79 416.082 407.79 428.918 416.629 430.428L547.695 454.339L609.819 465.665C640.881 471.454 665.377 495.617 670.932 526.575L683.054 591.764L707.045 722.393C708.56 731.202 721.44 731.202 722.955 722.393L746.946 591.764L759.067 526.575C764.876 495.617 789.119 471.203 820.181 465.665L882.305 454.339L1013.37 430.428C1022.21 428.918 1022.21 416.334 1013.37 414.572Z" fill="#FF4431"/>
<path d="M663.624 461V446.024H638.408V436.296L664.136 385.352H675.912V437.704H683.464V446.024H675.912V461H663.624ZM648.264 437.704H663.624V406.984L648.264 437.704ZM710.594 462.664C706.583 462.579 702.999 461.725 699.842 460.104C696.77 458.397 694.338 455.752 692.546 452.168C690.839 448.584 689.986 443.848 689.986 437.96V406.472C689.986 398.963 691.949 393.416 695.874 389.832C699.799 386.248 704.791 384.456 710.85 384.456C716.738 384.456 721.602 386.248 725.442 389.832C729.282 393.416 731.202 398.963 731.202 406.472V437.832C731.202 443.805 730.306 448.627 728.514 452.296C726.807 455.965 724.375 458.611 721.218 460.232C718.146 461.853 714.605 462.664 710.594 462.664ZM710.594 455.24C712.983 455.24 714.989 454.301 716.61 452.424C718.231 450.461 719.042 447.645 719.042 443.976V403.272C719.042 399.517 718.189 396.701 716.482 394.824C714.861 392.861 712.898 391.88 710.594 391.88C708.205 391.88 706.199 392.861 704.578 394.824C702.957 396.701 702.146 399.517 702.146 403.272V443.976C702.146 447.645 702.957 450.461 704.578 452.424C706.199 454.301 708.205 455.24 710.594 455.24ZM762.624 461V446.024H737.408V436.296L763.136 385.352H774.912V437.704H782.464V446.024H774.912V461H762.624ZM747.264 437.704H762.624V406.984L747.264 437.704Z" fill="#F7DE1C"/>
</svg>
