<svg width="610" height="613" viewBox="0 0 610 613" fill="none" xmlns="http://www.w3.org/2000/svg">
<path d="M603.371 298.572L472.305 274.661L410.181 263.335C379.119 257.546 354.623 233.383 349.067 202.425L336.946 137.236L312.955 6.60696C311.44 -2.20232 298.56 -2.20232 297.045 6.60696L273.054 137.236L260.932 202.425C255.124 233.383 230.881 257.797 199.819 263.335L137.695 274.661L6.62906 298.572C-2.20969 300.082 -2.20969 312.918 6.62906 314.428L137.695 338.339L199.819 349.665C230.881 355.454 255.377 379.617 260.932 410.575L273.054 475.764L297.045 606.393C298.56 615.202 311.44 615.202 312.955 606.393L336.946 475.764L349.067 410.575C354.876 379.617 379.119 355.203 410.181 349.665L472.305 338.339L603.371 314.428C612.21 312.918 612.21 300.334 603.371 298.572Z" fill="#FF4431"/>
<path d="M253.624 341V326.024H228.408V316.296L254.136 265.352H265.912V317.704H273.464V326.024H265.912V341H253.624ZM238.264 317.704H253.624V286.984L238.264 317.704ZM300.594 342.664C296.583 342.579 292.999 341.725 289.842 340.104C286.77 338.397 284.338 335.752 282.546 332.168C280.839 328.584 279.986 323.848 279.986 317.96V286.472C279.986 278.963 281.949 273.416 285.874 269.832C289.799 266.248 294.791 264.456 300.85 264.456C306.738 264.456 311.602 266.248 315.442 269.832C319.282 273.416 321.202 278.963 321.202 286.472V317.832C321.202 323.805 320.306 328.627 318.514 332.296C316.807 335.965 314.375 338.611 311.218 340.232C308.146 341.853 304.605 342.664 300.594 342.664ZM300.594 335.24C302.983 335.24 304.989 334.301 306.61 332.424C308.231 330.461 309.042 327.645 309.042 323.976V283.272C309.042 279.517 308.189 276.701 306.482 274.824C304.861 272.861 302.898 271.88 300.594 271.88C298.205 271.88 296.199 272.861 294.578 274.824C292.957 276.701 292.146 279.517 292.146 283.272V323.976C292.146 327.645 292.957 330.461 294.578 332.424C296.199 334.301 298.205 335.24 300.594 335.24ZM352.624 341V326.024H327.408V316.296L353.136 265.352H364.912V317.704H372.464V326.024H364.912V341H352.624ZM337.264 317.704H352.624V286.984L337.264 317.704Z" fill="#F7DE1C"/>
</svg>
