<svg width="768" height="880" viewBox="0 0 768 880" fill="none" xmlns="http://www.w3.org/2000/svg">
<path d="M502 0.00955344L285 0.00956855L384.238 441.086L502 0.00955344Z" fill="#F7DE1C"/>
<path d="M502 880H285L384.238 438.924L502 880Z" fill="#F7DE1C"/>
<path d="M768 0L623 8.46062e-06L386.5 438.206L768 0Z" fill="#05C1F1"/>
<path d="M768 878.201H623L386.5 439.995L768 878.201Z" fill="#05C1F1"/>
<path d="M2.00039 0L147.001 8.46062e-06L383.501 438.206L2.00039 0Z" fill="#05C1F1"/>
<path d="M2.00039 878.201H147.001L383.501 439.995L2.00039 878.201Z" fill="#05C1F1"/>
<path d="M5.60209e-06 286.493L0 594.598L384 437.218L5.60209e-06 286.493Z" fill="#F7DE1C"/>
<path d="M767.999 286.493V594.598L384 437.218L767.999 286.493Z" fill="#F7DE1C"/>
<path d="M591.288 435.154L457.358 411.139C435.825 407.194 418.843 390.726 414.991 369.628L406.588 325.2L389.956 236.173C388.906 230.169 379.977 230.169 378.927 236.173L362.295 325.2L353.892 369.628C349.865 390.726 333.058 407.365 311.525 411.139L177.595 435.154C171.468 436.183 171.468 444.932 177.595 445.961L311.525 469.976C333.058 473.921 350.04 490.388 353.892 511.487L362.295 555.915L378.927 644.942C379.977 650.945 388.906 650.945 389.956 644.942L406.588 555.915L414.991 511.487C419.018 490.388 435.825 473.749 457.358 469.976L591.288 445.961C597.415 444.932 597.415 436.355 591.288 435.154Z" fill="#FF4431"/>
<path d="M353.64 463.678V454.476H337.88V448.499L353.96 417.198H361.32V449.364H366.04V454.476H361.32V463.678H353.64ZM344.04 449.364H353.64V430.489L344.04 449.364Z" fill="#F7DE1C"/>
<path d="M382.996 464.7C380.489 464.648 378.249 464.123 376.276 463.127C374.356 462.079 372.836 460.453 371.716 458.251C370.649 456.049 370.116 453.139 370.116 449.521V430.174C370.116 425.56 371.343 422.152 373.796 419.95C376.249 417.748 379.369 416.647 383.156 416.647C386.836 416.647 389.876 417.748 392.276 419.95C394.676 422.152 395.876 425.56 395.876 430.174V449.443C395.876 453.113 395.316 456.075 394.196 458.33C393.129 460.584 391.609 462.21 389.636 463.206C387.716 464.202 385.503 464.7 382.996 464.7ZM382.996 460.139C384.489 460.139 385.743 459.562 386.756 458.409C387.769 457.203 388.276 455.472 388.276 453.218V428.208C388.276 425.901 387.743 424.171 386.676 423.018C385.663 421.812 384.436 421.209 382.996 421.209C381.503 421.209 380.249 421.812 379.236 423.018C378.223 424.171 377.716 425.901 377.716 428.208V453.218C377.716 455.472 378.223 457.203 379.236 458.409C380.249 459.562 381.503 460.139 382.996 460.139Z" fill="#F7DE1C"/>
<path d="M415.515 463.678V454.476H399.755V448.499L415.835 417.198H423.195V449.364H427.915V454.476H423.195V463.678H415.515ZM405.915 449.364H415.515V430.489L405.915 449.364Z" fill="#F7DE1C"/>
</svg>
