<svg width="307" height="137" viewBox="0 0 307 137" fill="none" xmlns="http://www.w3.org/2000/svg">
<rect x="37.2739" y="20.6953" width="235.043" height="114.405" fill="#01B37F" stroke="black" stroke-width="2"/>
<path d="M36.6265 20.0481L69.0788 1H288.485V101.532L272.612 135.748L272.964 20.4009L36.6265 20.0481Z" fill="#01B37F"/>
<path d="M36.6265 20.0481L36.1203 19.1857L36.625 21.0481L36.6265 20.0481ZM69.0788 1V0H68.807L68.5726 0.137584L69.0788 1ZM288.485 1H289.485V0H288.485V1ZM288.485 101.532L289.392 101.953L289.485 101.752V101.532H288.485ZM272.612 135.748L271.612 135.745L273.519 136.169L272.612 135.748ZM36.6265 20.0481L37.1327 20.9106L69.585 1.86242L69.0788 1L68.5726 0.137584L36.1203 19.1857L36.6265 20.0481ZM69.0788 1V2H288.485V1V0H69.0788V1ZM288.485 1H287.485V101.532H288.485H289.485V1H288.485ZM288.485 101.532L287.578 101.111L271.705 135.327L272.612 135.748L273.519 136.169L289.392 101.953L288.485 101.532ZM272.612 135.748L273.612 135.751L273.964 20.4039L272.964 20.4009L271.964 20.3978L271.612 135.745L272.612 135.748ZM272.964 20.4009L272.966 19.4009L36.628 19.0481L36.6265 20.0481L36.625 21.0481L272.963 21.4009L272.964 20.4009ZM272.964 20.4009L273.745 21.0256L289.266 1.6247L288.485 1L287.704 0.375305L272.184 19.7762L272.964 20.4009Z" fill="black"/>
<circle cx="151.268" cy="100.827" r="13.1097" fill="#FF8CBD" stroke="black" stroke-width="2"/>
<path d="M178.782 87.4227V67.3164L192.539 54.6176L305.064 21.8125V72.6075L295.893 87.4227H178.782Z" fill="white"/>
<path d="M305.064 21.8125V72.6075L295.893 87.4227H178.782V67.3164L192.539 54.6176L305.064 21.8125ZM178.782 67.3164L295.893 37.6859M295.893 87.4227V37.6859M295.893 37.6859L305.064 21.8125" stroke="black" stroke-width="2"/>
<path d="M222.522 87.4225V56.2985L257.091 47.5625V87.4225H222.522Z" fill="#01B37F" stroke="black" stroke-width="2"/>
<path d="M234.516 87.0692V53.3187L245.098 50.6006V87.0692H234.516Z" fill="black" stroke="black" stroke-width="2"/>
<path d="M1.00011 85.3055H118.111L129.046 75.7814V57.4388L27.4558 21.459L1.00011 35.5687V85.3055Z" fill="white"/>
<path d="M118.111 65.1991V85.3055M118.111 65.1991L1.0001 35.5687M118.111 65.1991L129.046 57.4388M129.046 57.4388L27.4558 21.459L1.0001 35.5687V85.3055H118.111L129.046 75.7814V57.4388Z" stroke="black" stroke-width="2"/>
<path d="M71.5488 85.3057V53.5588L36.98 44.7402V85.3057H71.5488Z" fill="#01B37F" stroke="black" stroke-width="2"/>
<path d="M59.5552 84.7362V50.9857L48.9729 48.2676V84.7362H59.5552Z" fill="black" stroke="black" stroke-width="2"/>
</svg>
