<svg width="307" height="137" viewBox="0 0 307 137" fill="none" xmlns="http://www.w3.org/2000/svg">
<path d="M36.627 20.0481L69.0793 1H288.486L287.78 103.296L272.612 135.748V103.296V20.4009L69.0793 20.0966L36.627 20.0481Z" fill="white"/>
<path d="M36.627 20.0481L36.1208 19.1857L36.6255 21.0481L36.627 20.0481ZM69.0793 1V0H68.8075L68.5731 0.137584L69.0793 1ZM288.486 1L289.486 1.0069L289.493 0H288.486V1ZM287.78 103.296L288.686 103.719L288.779 103.521L288.78 103.302L287.78 103.296ZM272.612 135.748H271.612L273.518 136.171L272.612 135.748ZM69.0793 20.0966L69.0778 21.0966V21.0966L69.0793 20.0966ZM36.627 20.0481L37.1332 20.9106L69.5855 1.86242L69.0793 1L68.5731 0.137584L36.1208 19.1857L36.627 20.0481ZM69.0793 1V2H288.486V1V0H69.0793V1ZM288.486 1L287.486 0.993104L286.78 103.289L287.78 103.296L288.78 103.302L289.486 1.0069L288.486 1ZM287.78 103.296L286.874 102.872L271.706 135.324L272.612 135.748L273.518 136.171L288.686 103.719L287.78 103.296ZM272.612 20.4009L273.386 21.0341L289.26 1.63324L288.486 1L287.712 0.366762L271.838 19.7676L272.612 20.4009ZM272.612 135.748H273.612V103.296H272.612H271.612V135.748H272.612ZM272.612 103.296H273.612V20.4009H272.612H271.612V103.296H272.612ZM287.78 103.296V102.296H272.612V103.296V104.296H287.78V103.296ZM272.612 20.4009L272.614 19.4009L69.0808 19.0966L69.0793 20.0966L69.0778 21.0966L272.611 21.4009L272.612 20.4009ZM69.0793 20.0966L69.0808 19.0966L36.6284 19.0481L36.627 20.0481L36.6255 21.0481L69.0778 21.0966L69.0793 20.0966ZM69.0793 1H68.0793V20.0966H69.0793H70.0793V1H69.0793Z" fill="black"/>
<path d="M272.318 20.6953V135.101H37.2744V20.6953H272.318Z" fill="white" stroke="black" stroke-width="2"/>
<circle cx="151.268" cy="100.827" r="13.1097" fill="white" stroke="black" stroke-width="2"/>
<path d="M178.782 87.4218V67.3154L192.539 54.6166L305.064 21.8115V72.6065L295.893 87.4218H178.782Z" fill="white"/>
<path d="M295.893 87.4218H178.782V67.3154L192.539 54.6166L305.064 21.8115V72.6065L295.893 87.4218ZM178.782 67.3154L295.893 37.685M178.782 87.4218L192.539 75.7812M295.893 87.4218V37.685M295.893 37.685L305.064 21.8115M192.539 54.6166V75.7812M305.064 72.6065L192.539 75.7812" stroke="black" stroke-width="2"/>
<path d="M1.00011 85.3055H118.111L129.046 75.7814V57.4388L27.4558 21.459L1.00011 35.5687V85.3055Z" fill="white"/>
<path d="M118.111 65.1991V85.3055M118.111 65.1991L1.0001 35.5687M118.111 65.1991L129.046 57.4388M1.0001 35.5687V85.3055H118.111L129.046 75.7814V57.4388L27.4558 21.459L1.0001 35.5687ZM1.0001 85.3055L27.4558 70.4903M129.046 75.7814L27.4558 70.4903M27.4558 21.459V70.4903" stroke="black" stroke-width="2"/>
</svg>
