<svg width="256" height="209" viewBox="0 0 256 209" fill="none" xmlns="http://www.w3.org/2000/svg">
<path d="M255.464 30.2012V38.5062H146.954V30.2012H255.464Z" fill="black"/>
<path d="M87.7195 116.017L29.6719 152.424L95.6812 176.641L176.311 167.186L214.672 152.424L169.942 116.017L122.172 129.701L87.7195 116.017Z" fill="black" stroke="black" stroke-width="2"/>
<path d="M100.213 194.432C94.7868 194.432 27.792 152.091 27.792 152.091L125.648 172.078C125.648 172.078 214.239 151.593 214.818 152.008C215.397 152.423 164.778 194.432 158.523 194.432H100.213Z" fill="#FF4431" stroke="black" stroke-width="2"/>
<path d="M86.2938 145.624L79.1846 124.559H93.9498L86.2938 145.624Z" fill="white" stroke="black" stroke-width="2"/>
<path d="M164.751 145.624L157.642 124.559H172.407L164.751 145.624Z" fill="white" stroke="black" stroke-width="2"/>
<path d="M85.7377 101.171C78.104 101.171 27.9385 152.59 27.9385 152.59L85.7377 125.198C85.7377 125.198 117.376 134.261 122.986 134.314C128.597 134.367 166.029 125.198 166.029 125.198L214.82 152.258C214.82 152.258 173.571 101.171 166.029 101.171C158.488 101.171 130.62 113.87 122.986 114.028C115.353 114.186 93.3714 101.171 85.7377 101.171Z" fill="#FF4431" stroke="black" stroke-width="2"/>
<path d="M114.51 151.79C101.878 153.219 83.6602 156.905 83.6602 160.366C83.6602 163.827 130.334 199.635 137.514 203.095C144.695 206.555 161.051 208.061 166.237 206.781C171.423 205.502 176.343 195.949 177.673 192.789C179.002 189.629 163.311 161.871 161.051 159.087C158.79 156.303 127.143 150.361 114.51 151.79Z" fill="#FF8CBD" stroke="black" stroke-width="2"/>
<path d="M118.994 151.76C118.994 151.76 129.417 156.902 137.234 164.614C145.05 172.327 150.985 184.187 150.985 184.187" stroke="black" stroke-width="2"/>
<path d="M53.8936 47.6807C69.1112 47.6807 81.3711 59.4723 81.3711 73.9258C81.371 88.3792 69.1112 100.171 53.8936 100.171C38.676 100.171 26.4161 88.3792 26.416 73.9258C26.416 59.4723 38.676 47.6807 53.8936 47.6807Z" fill="white" stroke="black" stroke-width="2"/>
<path d="M53.8965 59.9854C61.5764 59.9854 67.7266 65.9308 67.7266 73.1729C67.7266 80.4149 61.5764 86.3604 53.8965 86.3604C46.2167 86.3602 40.0674 80.4148 40.0674 73.1729C40.0674 65.9309 46.2167 59.9855 53.8965 59.9854Z" fill="#F7DE1C" stroke="black" stroke-width="2"/>
<path d="M53.7666 65.5098C58.3299 65.5099 61.9531 69.0385 61.9531 73.2988C61.9529 77.559 58.3298 81.0868 53.7666 81.0869C49.2034 81.0869 45.5803 77.559 45.5801 73.2988C45.5801 69.0385 49.2032 65.5098 53.7666 65.5098Z" fill="black" stroke="black" stroke-width="2"/>
<path d="M60.4619 69.0244C62.4885 69.0244 64.0557 70.5855 64.0557 72.4189C64.0556 74.2523 62.4885 75.8135 60.4619 75.8135C58.4356 75.8133 56.8692 74.2522 56.8691 72.4189C56.8691 70.5857 58.4355 69.0246 60.4619 69.0244Z" fill="white" stroke="black" stroke-width="2"/>
<mask id="path-13-inside-1_97_794" fill="white">
<path d="M25.4238 72.5449C25.4944 57.5556 38.2153 45.4248 53.8994 45.4248C69.5835 45.4249 82.3044 57.5556 82.375 72.5449L25.4238 72.5449Z"/>
</mask>
<path d="M25.4238 72.5449C25.4944 57.5556 38.2153 45.4248 53.8994 45.4248C69.5835 45.4249 82.3044 57.5556 82.375 72.5449L25.4238 72.5449Z" fill="#FF8CBD"/>
<path d="M25.4238 72.5449L23.4239 72.5355L23.4144 74.5449L25.4238 74.5449L25.4238 72.5449ZM53.8994 45.4248L53.8994 43.4248L53.8994 43.4248L53.8994 45.4248ZM82.375 72.5449L82.375 74.5449L84.3844 74.5449L84.375 72.5355L82.375 72.5449ZM25.4238 72.5449L27.4238 72.5543C27.4888 58.7471 39.2332 47.4248 53.8994 47.4248L53.8994 45.4248L53.8994 43.4248C37.1974 43.4248 23.5 56.364 23.4239 72.5355L25.4238 72.5449ZM53.8994 45.4248L53.8994 47.4248C68.5656 47.4249 80.31 58.7471 80.375 72.5543L82.375 72.5449L84.375 72.5355C84.2989 56.3641 70.6013 43.4249 53.8994 43.4248L53.8994 45.4248ZM82.375 72.5449L82.375 70.5449L25.4238 70.5449L25.4238 72.5449L25.4238 74.5449L82.375 74.5449L82.375 72.5449Z" fill="black" mask="url(#path-13-inside-1_97_794)"/>
<path d="M193.583 47.6807C208.801 47.6807 221.061 59.4723 221.061 73.9258C221.061 88.3792 208.801 100.171 193.583 100.171C178.365 100.171 166.106 88.3792 166.105 73.9258C166.105 59.4723 178.365 47.6807 193.583 47.6807Z" fill="white" stroke="black" stroke-width="2"/>
<path d="M193.579 59.9854C201.259 59.9854 207.409 65.9308 207.409 73.1729C207.409 80.4149 201.259 86.3604 193.579 86.3604C185.899 86.3602 179.75 80.4148 179.75 73.1729C179.75 65.9309 185.899 59.9855 193.579 59.9854Z" fill="#F7DE1C" stroke="black" stroke-width="2"/>
<path d="M193.454 65.5098C198.017 65.5099 201.641 69.0385 201.641 73.2988C201.64 77.559 198.017 81.0868 193.454 81.0869C188.891 81.0869 185.268 77.559 185.268 73.2988C185.268 69.0385 188.891 65.5098 193.454 65.5098Z" fill="black" stroke="black" stroke-width="2"/>
<path d="M200.149 69.0244C202.176 69.0244 203.743 70.5855 203.743 72.4189C203.743 74.2523 202.176 75.8135 200.149 75.8135C198.123 75.8133 196.557 74.2522 196.557 72.4189C196.557 70.5857 198.123 69.0246 200.149 69.0244Z" fill="white" stroke="black" stroke-width="2"/>
<mask id="path-19-inside-2_97_794" fill="white">
<path d="M165.107 72.5449C165.178 57.5556 177.899 45.4248 193.583 45.4248C209.267 45.4249 221.988 57.5556 222.059 72.5449L165.107 72.5449Z"/>
</mask>
<path d="M165.107 72.5449C165.178 57.5556 177.899 45.4248 193.583 45.4248C209.267 45.4249 221.988 57.5556 222.059 72.5449L165.107 72.5449Z" fill="#FF8CBD"/>
<path d="M165.107 72.5449L163.107 72.5355L163.098 74.5449L165.107 74.5449L165.107 72.5449ZM193.583 45.4248L193.583 43.4248L193.583 43.4248L193.583 45.4248ZM222.059 72.5449L222.059 74.5449L224.068 74.5449L224.059 72.5355L222.059 72.5449ZM165.107 72.5449L167.107 72.5543C167.172 58.7471 178.917 47.4248 193.583 47.4248L193.583 45.4248L193.583 43.4248C176.881 43.4248 163.184 56.364 163.107 72.5355L165.107 72.5449ZM193.583 45.4248L193.583 47.4248C208.249 47.4249 219.994 58.7471 220.059 72.5543L222.059 72.5449L224.059 72.5355C223.982 56.3641 210.285 43.4249 193.583 43.4248L193.583 45.4248ZM222.059 72.5449L222.059 70.5449L165.107 70.5449L165.107 72.5449L165.107 74.5449L222.059 74.5449L222.059 72.5449Z" fill="black" mask="url(#path-19-inside-2_97_794)"/>
<path d="M30.4255 0.0623869C35.4503 -0.394391 40.1156 1.71741 44.0108 4.42356C47.9644 7.17035 51.6934 10.9241 55.0047 14.7149C58.3348 18.5271 61.3957 22.5579 63.9502 25.9304C66.6177 29.4522 68.5377 31.9809 69.8246 33.2556C69.8113 33.2424 70.1842 33.5654 71.4858 33.9096C72.699 34.2304 74.3238 34.4674 76.3186 34.6016C80.3003 34.8693 85.2012 34.6949 90.0727 34.3158C94.9133 33.9392 99.5828 33.3724 103.052 32.8976C104.784 32.6607 106.209 32.4477 107.197 32.2945C107.691 32.2179 108.076 32.1563 108.336 32.1142C108.465 32.0932 108.563 32.077 108.628 32.0663C108.66 32.061 108.684 32.0571 108.699 32.0545C108.707 32.0533 108.712 32.0521 108.715 32.0516C108.717 32.0513 108.718 32.0513 108.719 32.0512L108.719 32.0508C108.719 32.0509 108.719 32.0511 109.473 36.1403C110.207 40.1168 110.227 40.2266 110.227 40.2298C110.226 40.2299 110.225 40.23 110.224 40.2302C110.223 40.2304 110.221 40.2308 110.218 40.2313C110.212 40.2322 110.205 40.2337 110.195 40.2353C110.175 40.2386 110.146 40.2432 110.109 40.2493C110.035 40.2616 109.927 40.2794 109.787 40.302C109.508 40.3474 109.102 40.4125 108.585 40.4926C107.551 40.6528 106.073 40.8738 104.281 41.119C100.705 41.6084 95.8495 42.1985 90.7763 42.5932C85.734 42.9856 80.3317 43.1967 75.7098 42.8859C73.4029 42.7308 71.1509 42.4374 69.1734 41.9145C67.2846 41.4151 65.1522 40.5815 63.5811 39.0254C61.7528 37.2145 59.3787 34.0485 56.921 30.8037C54.3502 27.4097 51.4546 23.6017 48.3439 20.0405C45.2144 16.4579 42.0183 13.3031 38.9101 11.1437C35.7436 8.94377 33.2099 8.15172 31.2466 8.33018C28.7818 8.55429 26.0596 9.69228 23.2021 11.6164C20.3727 13.5215 17.6696 16.0226 15.2862 18.5917C12.915 21.1475 10.942 23.6814 9.55935 25.5828C8.87048 26.5302 8.33402 27.3123 7.97409 27.8508C7.79432 28.1197 7.65899 28.3274 7.57103 28.4638C7.52706 28.532 7.4949 28.5826 7.47508 28.6139C7.4652 28.6295 7.45838 28.6404 7.45466 28.6463C7.45353 28.6481 7.45212 28.6491 7.45158 28.65C7.4431 28.6444 7.26649 28.5428 3.7258 26.521C-0.00125308 24.3929 -0.000566453 24.3919 1.45565e-05 24.391C0.000281596 24.3905 0.000682008 24.3895 0.00117055 24.3887C0.00219893 24.3871 0.0036038 24.3851 0.00502388 24.3828C0.00791084 24.3782 0.0117164 24.3723 0.0161985 24.3651C0.0252068 24.3508 0.0374366 24.3311 0.0528051 24.3069C0.0835343 24.2584 0.126699 24.1904 0.182277 24.1041C0.293527 23.9316 0.454271 23.6859 0.66086 23.3768C1.0738 22.759 1.67257 21.886 2.43339 20.8397C3.9502 18.7538 6.13436 15.9449 8.79369 13.0784C11.4408 10.2252 14.6418 7.22448 18.2058 4.82466C21.7417 2.44385 25.9024 0.473607 30.4255 0.0623869ZM7.45196 28.6504L7.45119 28.6515C7.45131 28.6513 7.45124 28.6505 7.45158 28.65C7.45202 28.6503 7.45198 28.6503 7.45196 28.6504Z" fill="black"/>
<path d="M122.365 51.7201C117.406 51.8483 117.406 60.6949 117.406 60.6949L104.005 92.3632C104.005 92.3632 93.8202 96.8506 94.0882 103.902C94.3562 110.954 107.891 114.416 107.891 114.416C107.891 114.416 115.664 127.493 125.313 126.852C134.962 126.211 140.724 114.416 140.724 114.416C140.724 114.416 152.92 112.236 153.858 103.902C154.796 95.5684 140.724 92.3632 140.724 92.3632L127.993 60.6949C127.993 60.6949 127.323 51.5919 122.365 51.7201Z" fill="#F7DE1C" stroke="black" stroke-width="2"/>
<path d="M94.7549 105.312C94.7549 105.312 101.59 103.261 105.074 105.312C108.558 107.364 107.62 114.416 107.62 114.416" stroke="black" stroke-width="2"/>
<path d="M154.122 105.199C154.122 105.199 147.823 103.147 144.339 105.199C140.855 107.25 140.855 114.174 140.855 114.174" stroke="black" stroke-width="2"/>
</svg>
