<svg width="195" height="233" viewBox="0 0 195 233" fill="none" xmlns="http://www.w3.org/2000/svg">
<ellipse cx="97.5" cy="93.5884" rx="97.5" ry="93.5884" fill="white"/>
<path d="M96.959 130.244C124.549 130.244 149.38 141.478 166.682 159.4C149.009 176.55 124.479 187.177 97.3633 187.177C70.0337 187.177 45.331 176.383 27.6279 158.995C44.9112 141.308 69.5773 130.244 96.959 130.244Z" fill="#01B37F"/>
<path d="M97.0957 32.6963C124.383 32.6963 146.377 53.7424 146.377 79.5508C146.377 105.359 124.383 126.404 97.0957 126.404C69.8085 126.404 47.8147 105.359 47.8145 79.5508C47.8145 53.7424 69.8083 32.6963 97.0957 32.6963Z" fill="#01B37F" stroke="#FFFDFD" stroke-width="3"/>
<path d="M97.5 1.5C150.578 1.5 193.5 42.7871 193.5 93.5889C193.5 144.39 150.578 185.677 97.5 185.677C44.4223 185.677 1.50026 144.39 1.5 93.5889C1.5 42.7871 44.4222 1.5 97.5 1.5Z" stroke="black" stroke-width="3"/>
<path d="M96.1172 148.131C120.147 148.131 139.522 166.814 139.522 189.733C139.522 212.653 120.147 231.337 96.1172 231.337C72.0872 231.337 52.7129 212.653 52.7129 189.733C52.7132 166.814 72.0873 148.131 96.1172 148.131Z" fill="white" stroke="black" stroke-width="3"/>
<path d="M96.4443 167.579V211.891" stroke="black" stroke-width="3" stroke-linecap="round"/>
<path d="M119.198 190.046L73.0347 190.046" stroke="black" stroke-width="3" stroke-linecap="round"/>
</svg>
