<svg width="318" height="148" viewBox="0 0 318 148" fill="none" xmlns="http://www.w3.org/2000/svg">
<path d="M42.2031 10.9229C42.6718 21.1689 43.072 24.3912 43.3084 26.1008C43.7142 29.0366 44.0777 30.7592 44.7817 36.9795C45.1635 40.3524 45.353 43.6965 45.5541 46.5105C45.9259 51.7119 46.7569 56.0787 47.0968 59.9898C47.4635 64.208 47.8994 69.4424 48.1025 72.2593C48.1561 73.0016 48.3017 73.7307 48.37 77.2928C48.4384 80.855 48.4384 87.2271 48.3389 90.742C48.1688 96.7457 47.5695 100.756 47.0999 102.803C46.7958 104.129 46.0932 105.318 46.058 116.51C46.0495 119.198 46.2259 123.122 46.1263 128.752C46.0647 132.24 45.6889 133.749 45.9222 133.953C47.3346 135.189 47.0264 129.149 47.3312 126.186C47.6539 123.048 48.2373 120.427 48.6044 117.471C49.1369 113.184 49.6453 109.694 49.9792 104.449C50.13 102.079 50.0476 98.4909 50.1139 96.1799C50.1803 93.8688 50.3131 92.9395 50.3483 79.0196C50.3835 65.0998 50.3171 38.2175 50.3161 25.1655C50.3151 12.1136 50.3814 13.7066 50.482 14.826C50.5826 15.9453 50.7153 16.5427 50.9497 29.2628C51.184 41.9828 51.5159 66.8075 51.7532 79.8946C51.9906 92.9817 52.1233 93.5791 52.1917 95.3139C52.3725 99.8999 52.3928 103.507 52.594 105.21C53.1744 110.123 53.9336 113.226 54.3037 117.544C54.5455 120.365 55.076 126.341 55.4099 130.554C55.6022 132.98 55.6775 135.153 56.0787 136.392C56.2474 136.913 56.48 137.166 56.6821 137.07C58.4298 136.245 57.355 133.087 57.4555 128.532C57.5443 124.509 57.4897 117.008 57.5561 112.945C57.6225 108.882 57.7552 108.484 57.8236 105.955C57.892 103.427 57.892 98.7806 57.9252 96.1879C57.9584 93.5952 58.0247 93.197 58.0589 80.6459C58.0931 68.0947 58.0931 43.4029 58.0268 30.4505C57.9604 17.4981 57.8276 17.0335 57.7592 15.5662C57.431 8.52286 58.0248 6.77134 58.3255 6.29866C59.9713 3.71156 59.7626 14.125 60.1377 15.9463C60.5289 17.8456 61.3114 20.2356 61.4783 22.2118C61.7132 24.9924 62.1159 28.607 62.5494 31.6634C62.6427 32.321 62.9165 32.7706 63.0522 39.183C63.188 45.5953 63.2544 57.9412 63.2222 64.5336C63.19 71.1259 63.0573 71.5905 62.9889 74.9496C62.9205 78.3086 62.9205 84.5479 62.9537 87.9945C63.0017 92.987 63.3228 94.9911 63.6898 96.734C64.4276 100.237 64.5296 105.092 64.7629 108.233C64.9558 110.83 65.2658 113.765 65.4669 115.741C65.774 118.756 66.541 120.001 67.075 121.677C67.5153 123.06 67.5467 124.824 67.947 127.304C68.5628 131.12 68.7535 133.206 68.7535 132.856C68.7535 127.793 68.8199 123.432 68.9205 121.798C69.0902 119.04 69.0874 116.795 69.3881 113.733C70.0777 106.714 70.1595 101.176 70.4944 99.2382C71.2196 95.0414 71.6338 92.5975 72.0371 89.7474C72.2621 88.1575 72.5752 84.5681 72.6084 80.0454C72.6255 77.7112 72.9754 76.1021 73.2772 73.3656C73.4683 71.6322 73.3797 69.1688 73.4129 62.8923C73.4461 56.6157 73.5125 46.5929 73.4803 41.2637C73.4461 35.6004 73.1122 34.7961 73.0117 32.4327C72.7898 27.2198 72.8447 23.3975 72.6436 20.3714C71.7859 7.4689 72.374 6.03316 72.3409 5.72742C72.1133 3.6315 72.9734 9.70395 73.5115 14.0536C73.9181 17.3411 74.9164 21.2936 75.8206 25.242C77.0134 30.4509 77.4005 31.9037 77.8018 33.0391C78.0352 33.6997 78.2031 34.5728 78.3388 49.4873C78.4746 64.4018 78.541 93.3418 78.6084 108.416C78.6757 123.491 78.7421 123.822 78.7763 124.193C78.923 125.78 79.5467 127.375 79.7478 132.456C79.8978 136.246 80.9546 137.898 81.3901 139.846C81.4954 140.317 81.5581 140.783 81.7914 140.889C83.4283 141.637 83.839 137.58 84.0059 135.737C84.2641 132.886 85.0458 125.411 84.8789 122.025C84.8425 121.288 84.7783 120.415 84.6777 114.334C84.586 108.784 84.6435 98.2295 84.7099 92.494C84.7763 86.7585 84.9091 86.1611 84.9774 80.9083C85.0458 75.6556 85.0458 65.7655 85.1786 58.1152C85.3113 50.4649 85.5768 45.3539 85.8132 42.4887C86.0495 39.6235 86.2486 39.1588 86.3512 33.4103C86.4538 27.6617 86.4538 16.6433 86.4538 11.4981C86.4538 6.35297 86.4538 7.41499 86.5202 8.12803C86.7018 10.0792 87.4555 12.0533 88.1947 14.4337C89.254 17.8451 89.672 22.6493 90.5068 28.1625C90.9438 31.0491 90.8769 34.1706 91.2449 37.0177C91.4519 38.6188 91.7498 39.6134 91.8504 49.0468C91.9453 57.9488 91.8846 75.207 91.9509 84.2965C92.0173 93.386 92.1501 93.7843 92.2185 99.5318C92.2869 105.279 92.2869 116.364 92.32 122.24C92.3601 129.331 93.3569 131.063 93.6938 132.74C93.8414 133.474 94.0287 134.35 94.2299 134.79C94.573 135.539 94.431 132.884 94.7317 129.792C94.9994 127.041 95.0988 121.855 95.3009 118.325C95.6023 113.063 95.9074 110.76 95.9737 109.425C96.0669 107.55 96.3096 103.278 96.3428 98.1852C96.3587 95.7454 96.5108 91.4832 96.5772 85.5858C96.6017 83.4046 96.7763 82.8745 96.911 77.7887C97.0458 72.7028 97.1786 63.0783 97.2801 57.8547C97.3817 52.6311 97.4481 52.1001 97.4823 45.3881C97.5165 38.6761 97.5165 25.7991 97.616 19.0328C97.7287 11.3798 98.2526 10.1907 98.7193 9.85079C101.336 7.94468 100.867 15.0704 101.437 16.9168C102.438 20.165 102.545 25.6624 102.879 29.1119C103.044 30.813 103.014 32.2376 103.114 35.3331C103.338 42.2086 103.281 47.1239 103.515 48.8889C104.002 52.5505 103.885 55.7025 104.119 58.6342C104.585 64.4701 104.488 68.7122 104.789 70.4451C105.361 73.7418 105.295 76.4883 105.194 82.6039C105.103 88.1216 105.16 98.5432 105.193 104.078C105.233 110.686 105.494 112.156 105.595 116.236C105.704 120.588 105.896 126.236 106.097 128.912C106.24 130.818 106.968 132.339 107.27 132.977C107.811 134.122 108.108 129.736 108.41 128.027C108.511 127.457 108.644 126.727 108.712 123.696C108.78 120.665 108.78 115.354 108.847 112.055C108.936 107.623 109.382 105.999 109.75 104.997C110.155 103.894 110.188 100.724 110.354 95.9727C110.498 91.8578 111.194 89.2405 111.26 87.8356C111.292 87.1583 111.459 86.5634 111.627 80.0163C111.795 73.4692 111.994 60.9905 112.031 54.3961C112.074 46.5913 111.596 43.1293 111.196 40.6322C110.96 39.1614 110.792 33.4324 110.891 25.8585C110.95 21.4201 112.127 18.5139 112.634 16.3607C113.047 14.608 113.272 13.4089 113.505 13.0358C115.085 10.5093 115.08 18.5581 115.482 22.3868C115.799 25.4054 115.619 30.6627 115.685 33.5299C115.752 36.3972 115.885 36.7291 116.152 40.949C116.42 45.1689 116.818 53.2667 117.089 57.8034C117.361 62.3401 117.494 63.0703 117.595 69.6194C117.697 76.1685 117.763 88.5144 117.897 95.3059C118.048 102.966 118.634 104.314 119.035 105.549C119.615 107.333 119.775 109.538 120.075 111.445C120.307 112.916 120.648 117.686 120.714 124.287C120.754 128.264 121.249 129.658 121.584 130.527C121.737 130.926 121.786 131.265 121.82 113.979C121.854 96.6928 121.854 61.779 121.821 42.0341C121.788 22.2893 121.722 18.7713 121.721 16.7931C121.719 13.8025 122.055 12.4716 122.456 10.4612C122.552 9.97824 122.723 9.65568 122.891 9.71703C124.675 10.3684 124.332 13.7308 125.003 19.6342C125.369 22.8527 125.205 28.1806 125.306 31.3808C125.406 34.5809 125.539 35.5101 125.707 38.4448C126.156 46.287 126.412 51.6838 126.613 52.7176C127.376 56.6396 127.484 59.9245 127.886 66.377C128.229 71.8933 128.287 81.9895 128.456 87.4524C128.641 93.4511 128.894 96.7813 128.927 101.304C128.94 103.039 129.027 103.636 129.061 106.499C129.156 114.473 129.228 120.138 129.429 120.907C129.975 122.995 130.704 125.967 131.138 129.647C131.433 132.154 132.511 133.546 132.982 135.62C133.12 136.226 133.315 136.824 133.318 136.966C133.324 137.239 132.917 134.509 132.95 131.327C132.963 130.069 133.05 129.539 133.084 121.068C133.118 112.597 133.118 96.202 133.185 87.3911C133.251 78.5801 133.384 77.85 133.452 73.259C133.52 68.668 133.52 60.2382 133.554 55.7297C133.587 51.2212 133.653 50.8893 133.687 45.4746C133.722 40.0599 133.722 29.5725 133.788 23.9376C133.874 16.6711 135.194 13.3566 135.698 11.297C136.087 9.70789 136.604 8.57959 136.771 8.30905C137.534 7.07277 137.877 11.2487 138.279 12.7613C138.478 13.5067 138.414 14.2718 138.515 21.9101C138.611 29.2159 138.549 43.4873 138.615 51.0049C138.685 58.8566 138.951 61.3867 138.984 65.137C139.018 68.9252 139.687 73.1755 140.257 77.312C140.995 82.6761 140.492 86.7484 140.693 88.9449C141.148 93.9088 140.828 97.61 140.928 99.4413C141.142 103.325 141.095 106.392 141.296 107.429C142.053 111.33 142.097 118.38 142.771 121.037C143.583 124.238 144.241 127.358 144.683 129.822C145.141 132.379 145.655 133.413 145.922 133.518C147.218 134.032 146.928 130.142 147.13 126.575C147.491 120.163 146.999 115.521 146.631 114.384C145.971 112.347 145.991 110.427 145.657 108.254C144.805 102.712 145.79 97.5898 145.957 94.2006C146.073 91.8431 146.796 88.5064 147.831 81.385C148.549 76.438 149.342 73.4893 149.844 70.9399C149.99 70.1961 150.211 69.3378 150.347 65.3421C150.483 61.3465 150.549 54.2443 150.517 50.4196C150.469 44.7849 149.95 40.9087 149.746 38.6208C149.548 36.3887 149.012 34.0016 148.24 32.1501C147.145 29.5265 147.266 27.7582 147.165 26.4156C147.139 26.0781 147.065 25.7468 147.031 22.7549C146.997 19.7629 146.997 14.121 147.096 11.0486C147.207 7.633 147.6 6.97047 147.667 6.63356C147.904 5.4302 148.67 10.5689 149.407 13.2591C150.327 16.615 150.412 19.2178 151.118 21.1759C151.929 23.4255 152.826 27.1387 153.131 29.4186C153.459 31.8798 154.101 33.712 154.638 36.6566C155.08 39.0817 155.509 40.953 155.679 42.4625C155.721 42.8328 155.779 43.1655 155.813 49.5095C155.847 55.8534 155.847 68.1993 155.781 74.7253C155.711 81.5857 155.378 82.5225 155.278 84.6556C155.09 88.6429 155.111 91.6421 154.876 92.6448C154.615 93.7625 154.64 97.2499 154.574 101.74C154.544 103.718 154.238 108.564 154.271 115.569C154.289 119.467 154.837 121.875 155.209 123.554C155.747 125.98 155.577 127.644 156.013 129.286C156.544 131.288 156.716 132.805 157.02 133.454C158.827 137.313 157.657 127.19 158.158 122.549C158.769 116.891 158.393 112.705 158.594 109.809C159.03 103.542 158.729 98.8268 158.83 95.1007C158.914 91.973 158.864 86.33 158.997 82.3948C159.199 76.392 159.735 72.4233 160.035 68.6449C160.343 64.7608 161.077 62.0867 161.342 58.9892C161.889 52.6128 162.686 48.0049 162.852 46.5698C163.318 42.5324 164.428 40.2369 165.03 34.3647C165.431 30.4576 165.232 23.2044 165.167 19.2782C165.082 14.1682 164.094 12.0774 163.693 10.3245C163.613 9.97071 163.426 9.65568 163.158 9.48471C162.891 9.31374 162.493 9.31374 162.121 9.47968C161.335 9.83131 160.877 10.5849 160.476 11.4519C158.715 15.2557 160.268 20.6942 161.34 24.8176C162.551 29.4734 162.883 30.9644 163.321 33.2735C163.508 34.257 163.758 35.3211 164.622 40.8072C165.382 45.6355 166.946 54.5902 167.732 59.5383C168.519 64.4863 168.519 65.1501 168.718 67.1846C168.917 69.2191 169.315 72.6043 169.52 77.8329C169.726 83.0615 169.726 90.031 169.692 93.9201C169.645 99.4226 169.392 101.158 169.224 104.239C169.039 107.629 168.454 110.141 168.284 112.023C168.217 112.763 167.984 113.832 167.749 118.323C167.553 122.081 167.581 128.855 167.68 132.442C167.779 136.03 168.044 136.229 168.181 136.165C169.168 135.708 168.784 133.493 168.954 130.913C168.996 130.272 169.054 129.74 169.088 121.369C169.122 112.997 169.122 96.8014 169.188 88.1594C169.255 79.5175 169.388 78.9201 169.622 77.1189C170.244 72.3377 170.53 68.8551 170.63 67.2892C170.979 61.8031 171.532 59.5463 171.936 56.7967C172.785 51.0243 173.813 49.2158 174.75 43.9972C175.24 41.2693 176.291 37.1032 176.664 33.9956C176.858 32.3805 177.168 28.5185 177.234 23.5293C177.305 18.2301 177.968 15.1589 178.573 12.2705C178.773 11.3145 180.114 15.7965 180.617 23.4609C180.984 29.0582 180.788 38.1612 180.821 43.1112C180.858 48.593 180.989 50.9315 181.089 54.2111C181.169 56.8427 181.792 59.4498 182.094 64.8484C182.313 68.7819 182.196 75.1588 182.03 78.906C181.864 82.6532 181.532 83.5825 181.361 87.7451C181.19 91.9077 181.19 99.2754 181.224 103.237C181.26 107.531 181.392 109.996 181.358 113.513C181.323 117.317 181.058 120.934 181.089 126.322C181.112 130.289 181.726 132.673 182.328 134.082C182.495 134.473 182.53 134.949 182.597 134.99C182.665 135.03 182.731 134.632 182.765 129.249C182.8 123.867 182.8 113.512 182.866 107.614C182.932 101.715 183.065 100.587 183.134 99.3749C183.202 98.1631 183.202 96.9019 183.766 91.6391C184.33 86.3763 185.459 77.15 186.106 72.1316C186.971 65.4307 187.223 62.8973 187.591 58.5627C188.239 50.9309 188.162 45.3258 188.363 43.7207C188.563 42.1266 188.299 40.6975 188.031 39.4937C187.764 38.2899 187.693 32.6962 187.86 24.9543C187.952 20.7032 188.363 18.4415 188.631 12.0482C188.657 11.4124 189.228 12.9705 189.599 21.5561C189.97 30.1417 190.302 45.7401 190.539 54.2734C190.777 62.8068 190.91 63.8024 190.978 68.9285C191.046 74.0545 191.046 83.2808 190.947 88.3988C190.847 93.5168 190.648 94.2469 190.546 99.4685C190.443 104.69 190.443 114.381 190.675 120.336C190.984 128.24 191.851 130.663 191.95 131.832C192.211 134.891 193.19 136.691 193.259 139.379C193.285 140.424 193.392 136.641 193.593 132.152C193.767 128.263 193.661 121.091 193.761 116.834C193.86 112.577 194.059 111.448 194.162 109.042C194.42 102.989 194.596 98.3602 195.099 96.2895C195.746 93.627 195.337 91.3847 195.835 88.3555C196.939 81.6538 197.885 76.5687 198.051 73.8695C198.172 71.897 198.549 68.7142 198.72 64.1856C198.891 59.6569 198.891 53.8822 198.99 50.4095C199.09 46.9369 199.289 45.9412 199.392 42.7069C199.494 39.4726 199.494 34.0298 199.693 30.5621C200.074 23.9349 200.834 21.9976 201.937 18.5119C202.667 16.2047 203.046 14.2115 203.314 13.4099C203.469 12.9465 203.581 12.3429 203.716 18.54C203.851 24.7371 203.984 37.7468 204.152 45.3781C204.361 54.8726 204.724 57.5128 204.857 59.3492C205.044 61.9397 205.528 64.615 205.628 66.7572C205.672 67.7087 205.927 68.3683 206.062 76.5094C206.198 84.6505 206.265 100.249 206.232 108.517C206.198 117.251 205.931 119.786 205.864 123.235C205.793 126.919 205.13 129.853 204.825 133.503C204.708 134.908 204.322 136.756 204.322 138.568C204.322 141.162 205.126 129.945 205.627 126.089C205.928 123.774 206.198 122.626 206.763 113.394C207.308 104.498 208.191 87.0381 208.737 77.7464C209.317 67.8512 209.618 66.4454 209.818 64.9399C210.451 60.1755 210.754 53.7052 211.259 50.6952C211.968 46.4681 213.103 43.1816 213.506 40.8725C214.492 35.2111 214.31 31.6644 214.712 28.2329C214.938 26.3099 214.847 24.7391 214.948 22.2762C215.173 16.7644 215.115 12.6708 215.349 11.8008C215.458 11.3974 215.517 11.0637 215.783 11.7224C216.695 13.9757 217.126 17.0113 217.327 24.4978C217.494 30.7212 217.396 41.8742 217.462 48.017C217.528 54.1598 217.661 54.9563 217.763 58.6522C217.864 62.3482 217.931 68.9194 218.031 72.6033C218.132 76.2871 218.265 76.8845 218.399 83.3321C218.534 89.7796 218.667 102.059 218.702 108.65C218.745 116.785 218.536 118.325 218.436 122.848C218.348 126.772 218.401 134.008 218.335 137.304C218.286 139.744 218.065 132.608 218.232 122.79C218.306 118.474 218.602 116.998 218.802 114.796C218.935 113.318 219.399 111.135 219.637 106.555C219.876 101.975 219.942 95.0716 220.175 90.4534C220.409 85.8352 220.807 83.7112 221.012 82.2851C221.217 80.8591 221.217 80.1953 221.781 72.7511C222.346 65.3069 223.474 51.1025 224.155 43.5527C224.879 35.5227 225.24 33.4002 225.306 30.72C225.365 28.3386 225.775 25.952 226.109 21.6044C226.66 14.4328 228.659 10.9289 228.726 10.2561C228.769 9.821 229.194 13.1153 229.462 16.4974C229.572 17.8905 229.729 18.6185 229.798 34.958C229.866 51.2976 229.866 83.2245 229.767 100.203C229.667 117.181 229.468 118.243 229.365 119.586C228.991 124.488 228.861 129.816 229.028 134.509C229.203 139.443 229.396 140.99 229.796 141.493C229.994 141.741 230.462 141.664 230.8 141.332C231.137 141 231.403 140.336 231.639 131.664C231.876 122.992 232.075 106.331 232.244 97.5496C232.42 88.3663 232.749 86.1671 232.916 83.2194C233.066 80.5578 233.487 78.8477 233.988 77.2385C234.632 75.1692 234.826 71.2245 235.729 64.8524C236.134 61.9955 236.166 59.4759 236.668 56.837C237.776 51.0094 237.976 47.2205 238.48 43.788C239.077 39.7189 239.384 37.6825 239.688 36.0713C240.014 34.3424 240.458 32.4528 240.593 26.8018C240.668 23.654 241.194 20.4569 242.199 16.9359C242.701 15.1756 242.872 13.6785 243.307 12.7673C244.077 11.1561 243.61 16.2148 243.711 23.0918C243.804 29.5035 243.745 41.8501 243.878 49.2389C244.01 56.6278 244.276 58.6854 244.413 60.5751C244.84 66.4822 244.147 70.5004 243.48 74.3029C242.55 79.6097 240.663 85.5376 240.493 88.2167C240.353 90.4372 240.126 91.8433 239.825 97.094C239.55 101.873 239.722 110.974 239.788 115.824C239.891 123.347 240.257 128.312 240.826 130.79C241.73 134.722 241.13 137.355 241.397 140.346C241.505 141.56 242.001 142.398 242.301 142.867C242.446 143.096 242.932 142.939 243.237 142.672C243.905 142.088 244.477 139.073 245.381 130.64C246.027 124.62 245.953 114.972 246.122 109.616C246.291 104.26 246.424 103.463 246.492 101.161C246.673 95.0779 246.694 90.0491 246.928 86.4809C247.331 80.335 247.297 76.0297 247.631 74.6619C248.635 70.5479 249.24 67.4632 249.81 64.439C250.32 61.7337 250.382 59.4699 250.515 58.0016C250.722 55.7113 251.784 52.7096 252.855 49.0006C254.107 44.666 254.136 41.7676 254.47 40.8333C256.221 35.9319 255.345 29.6329 255.244 26.4076C255.156 23.5817 255.21 18.3369 255.243 15.8015C255.276 13.2661 255.343 13.598 255.377 28.7036C255.411 43.8092 255.411 73.6784 255.477 89.4306C255.544 105.183 255.676 105.913 255.745 107.451C255.916 111.308 255.747 114.236 255.646 116.7C255.432 121.948 255.745 125.969 255.946 127.803C256.522 133.054 256.618 135.875 257.285 137.905C257.39 138.226 257.885 138.176 258.056 137.712C258.564 136.334 258.161 134.762 258.06 129.213C257.968 124.129 258.026 114.437 258.092 106.359C258.159 98.2798 258.291 92.1068 258.559 87.3337C259.006 79.3594 259.635 75.561 259.801 74.1591C260.537 67.9411 261.912 61.4169 262.082 59.9395C262.182 59.0717 262.382 58.0619 262.584 54.204C262.757 50.881 262.652 44.7706 262.685 41.4257C262.73 36.871 263.251 35.0033 263.789 32.9225C264.706 29.3766 265.601 25.948 265.702 24.2051C265.816 22.2483 266.337 20.2517 266.674 18.3057C267.076 15.9832 267.009 14.2135 267.243 13.1766C267.357 12.6734 267.411 12.2061 267.445 26.0385C267.479 39.8709 267.479 68.0143 267.38 82.8111C267.28 97.6079 267.081 98.2053 266.978 100.272C266.702 105.851 266.743 109.946 266.542 114.599C266.361 118.785 266.474 126.687 266.54 130.955C266.613 135.625 266.876 137.16 266.909 138.671C266.911 138.771 267.077 137.58 267.276 135.048C267.665 130.105 268.284 124.923 268.35 121.241C268.4 118.481 268.686 114.206 268.753 109.18C268.786 106.67 269.088 105.597 269.387 102.371C269.643 99.605 270.283 94.5647 270.79 91.0035C271.574 85.4988 272.172 81.7421 272.405 78.0642C272.809 71.6968 273.514 69.8648 274.048 66.8195C274.592 63.7133 275.119 60.0974 275.623 54.6888C276.054 50.0801 277.532 45.0643 277.97 42.0492C279.1 34.2604 279.411 30.7793 279.715 28.8977C280.047 26.8365 280.751 23.2085 281.824 17.9155C282.57 14.236 283.301 10.3315 283.403 7.21284C283.435 6.23177 283.57 5.56249 283.57 5.32515C283.57 3.6202 283.104 8.77067 283.033 17.7103C283.002 21.6621 283.233 27.1709 283.401 30.3409C283.568 33.5108 283.768 34.1746 283.87 38.2668C283.973 42.3589 283.973 49.8594 283.906 54.022C283.815 59.7385 283.438 61.5979 282.501 64.8836C281.869 67.1022 281.897 69.8487 281.527 71.6599C281.091 73.7927 281.024 75.9513 280.823 79.1283C280.586 82.8699 279.749 85.1997 279.482 87.2472C279.073 90.3897 277.806 93.7802 277.471 95.9294C277.084 98.4095 276 101.279 275.225 104.242C274.803 105.858 275.056 107.331 274.856 108.4C274.603 109.752 274.318 114.868 274.285 121.704C274.271 124.56 274.117 128.752 274.183 134.684C274.207 136.833 274.382 137.23 274.617 137.502C274.851 137.773 275.183 137.906 275.387 137.809C276.952 137.061 275.394 132.695 274.858 124.043C274.417 116.928 274.588 104.24 274.885 94.9539C275.183 85.6683 275.847 80.1591 276.189 69.4886C276.531 58.8182 276.531 43.1534 276.497 34.785C276.457 24.6684 275.662 22.2671 275.459 20.1159C275.259 18.9805 275.123 16.9047 275.189 14.5263C275.255 13.6081 275.388 13.2762 275.525 12.1297" stroke="#01B37F" stroke-width="10" stroke-linecap="round"/>
<path d="M139.354 89.9707C140.558 95.0575 141.494 98.4024 141.8 102.46C141.961 104.584 142.035 105.589 142.202 105.86C143.017 107.181 142.974 97.2077 143.908 92.9928C144.26 91.4073 145.052 90.377 145.252 89.9063C145.686 88.8846 146.788 95.2325 147.298 99.0129C147.574 101.063 148.67 104.167 148.74 110.731C148.753 112.027 149.004 112.358 149.206 112.23C149.907 111.787 149.879 110.425 149.98 106.7C150.068 103.442 150.014 97.4008 150.113 94.09C150.253 89.4642 151.02 87.899 151.519 86.0907C152.326 83.1724 152.494 82.1967 152.661 81.4947C152.75 81.1216 152.894 80.7263 152.963 81.2845C153.216 83.3549 153.164 85.4732 153.365 88.1031C153.803 93.8363 153.566 98.0786 153.767 99.7451C154.42 105.151 154.371 107.055 154.973 109.039C155.106 109.478 155.175 109.875 155.243 109.915C156.916 110.889 157.388 105.197 157.957 103.153C158.201 102.276 158.391 100.71 158.927 96.8426C159.897 89.8513 159.2 85.7427 159.099 87.1095C158.776 91.4986 159.6 93.5107 160.036 95.3622C160.37 96.7858 161.467 101.066 162.415 104.611C162.843 106.21 163.488 107.399 163.79 107.604C165.143 108.519 164.894 103.865 165.433 101.079C165.502 100.174 165.502 98.9134 165.535 97.9982C165.568 97.083 165.634 96.552 165.703 95.6026" stroke="#FF8CBD" stroke-width="10" stroke-linecap="round"/>
<path d="M5.19272 27.6172C5.12635 28.812 5.05997 30.0067 5.02577 35.0362C4.99158 40.0657 4.99158 48.8937 5.02477 53.6406C5.06645 59.6018 5.99325 62.9252 6.33117 66.6252C6.67877 70.4312 7.13574 72.2621 7.5712 73.7395C8.51729 76.9492 8.07304 82.0496 8.40995 83.5953C8.49703 83.9948 8.54371 84.4632 8.67746 84.5366C10.0653 85.2984 9.5494 80.724 9.75054 76.4005C9.92373 72.6778 9.81893 65.8377 9.8853 62.0171C9.96213 57.5952 10.4203 55.2578 10.7221 52.3775C10.898 50.698 11.0901 48.7509 11.5588 45.3446C12.1876 40.7744 12.1642 37.4791 12.3654 35.0141C12.5173 33.1514 12.4337 30.0268 12.4669 28.9175C12.5375 26.559 14.0388 37.7707 14.4763 42.5478C14.9235 47.4306 15.7847 51.2108 15.9859 53.0462C16.6038 58.6852 16.191 63.2631 16.2544 66.2269C16.3068 68.6761 17.1927 70.7857 17.4602 76.1361C17.6827 80.5853 18.8702 82.5886 19.2363 84.1303C19.3713 84.6991 19.8679 85.3965 19.9071 85.7726C19.9565 86.2466 19.2725 80.7059 19.2061 71.8286C19.171 67.129 18.6047 64.7053 18.2024 59.5441C17.8889 55.5211 18.0657 48.6081 18.132 44.8528C18.2212 39.8091 19.0673 37.5535 19.539 35.4355C19.9755 33.4755 20.6764 31.7848 21.0817 30.237C21.1688 29.9047 21.2155 29.5682 21.2497 29.8951C21.2839 30.2219 21.2839 31.2176 21.5826 34.0868C21.8813 36.9561 22.4786 41.6688 22.886 45.6896C23.6149 52.885 23.9631 57.7056 24.4317 60.6493C25.2358 65.7 26.9077 70.6329 27.5846 74.2705C28.1099 77.0939 28.5209 79.2336 28.9262 81.0801C29.1079 81.9077 29.1283 82.8581 28.9624 83.5299C28.9102 83.7412 28.4646 83.4052 28.3268 74.8719C28.189 66.3385 28.2554 49.5454 28.4555 40.5625C28.6707 30.9036 29.3295 29.8337 29.3626 29.3963C29.386 29.088 29.5306 31.7566 29.8293 36.4955C30.0198 39.5173 30.7254 43.7566 31.0331 47.1066C31.5529 52.7642 31.4736 55.5715 31.6747 56.9051C32.3165 61.16 32.4109 65.1981 32.9148 68.3389C33.5941 72.5736 34.4223 77.017 34.9262 79.1019C35.1496 80.0265 35.4944 81.5789 36.0968 82.9889C36.2824 83.4232 36.7052 80.006 36.4055 74.6909C36.0782 68.8859 35.43 65.2363 35.5306 62.6054C35.8887 53.2386 36.0314 51.6292 36.2346 49.3161C36.4712 46.622 37.5722 44.2554 38.0106 42.2742C38.4523 40.2785 38.9158 38.2896 39.3512 36.4734C39.7487 34.8157 39.7887 33.4543 39.6228 32.8508C39.5528 32.5964 39.125 32.6457 38.954 32.8116C38.0494 33.6896 38.5819 35.7875 39.1159 37.0999C39.6398 38.3875 40.3881 40.5424 41.0599 43.3926C42.4692 49.3713 42.4035 52.4177 42.5705 55.2246C42.8978 60.7276 42.8742 62.3379 42.7726 66.1545C42.7203 68.1219 42.4035 76.2205 41.9027 80.9141C41.8001 81.5829 41.601 82.1904 41.2993 82.7586C41.1967 83.0613 41.1967 83.3932 40.7944 83.7351" stroke="white" stroke-width="10" stroke-linecap="round"/>
<path d="M79.4141 38.8809C80.4761 46.846 81.2223 53.5379 81.6568 58.0243C82.1178 62.7849 82.5639 65.0169 82.6987 67.1339C82.8045 68.7967 83.9035 71.1155 84.1398 72.968C84.268 73.9724 84.6437 75.2127 84.7432 76.4517C84.7848 76.9686 85.0419 77.2261 85.3436 76.9978C86.2901 76.2817 86.8522 72.7648 87.4556 65.4916C87.8488 60.7526 87.6608 53.8376 87.8599 49.9164C88.0977 45.2329 89.1331 44.2473 89.635 43.7122C89.8802 43.4508 90.0704 43.1772 90.3058 43.3391C91.0551 43.8547 91.412 46.0414 92.0808 49.9777C93.1684 56.3791 93.2243 60.9338 93.4254 62.1034C94.1841 66.5147 95.3001 72.8573 96.0051 75.3102C96.2448 76.1444 96.5713 77.4071 96.7422 74.0742C96.9132 70.7414 96.9132 62.7762 97.1123 57.3787C97.4076 49.3755 98.1864 46.327 98.4197 45.5245C98.5418 45.1045 98.8522 44.7219 99.1217 44.9482C101.205 46.6973 100.53 50.0642 100.801 51.9157C101.056 53.6525 101.737 56.2995 102.041 58.9475C102.671 64.4223 102.947 67.0887 103.481 69.9479C103.837 71.8498 104.283 74.1326 104.89 75.3213C104.998 75.5327 104.959 74.2975 105.39 71.3317C105.822 68.3659 106.685 63.2549 107.129 60.3233C107.662 56.8067 107.972 54.8513 108.708 52.7072C108.995 51.8713 109.311 51.6251 109.78 52.0857C112.839 55.0917 112.666 59.0471 112.936 62.2965C113.565 69.8742 114.412 73.3361 114.779 74.8456C115.106 76.1872 114.547 77.3609 114.612 77.7993C114.983 80.2831 117.224 72.8131 117.663 71.0702C118.236 68.7932 118.636 64.7836 118.436 62.2533C118.309 60.6442 117.832 58.673 117.397 57.3203C116.768 55.3612 118.833 63.2067 119.472 66.8584C120.044 70.9123 120.177 74.8124 120.478 75.7497C120.646 76.156 120.845 76.4215 120.245 76.6951" stroke="white" stroke-width="10" stroke-linecap="round"/>
<path d="M191.046 58.593C193.124 73.1293 193.524 76.8846 194.028 78.7341C194.146 79.1674 194.196 79.6362 194.296 80.0415C194.483 80.7919 194.666 75.4123 194.7 66.5309C194.718 61.6816 195 59.5383 195.502 58.2601C195.717 57.714 196.539 61.3204 197.243 64.8042C198.3 70.037 198.89 76.6875 199.424 79.1997C199.672 80.3636 199.695 81.3177 199.894 81.5893C202.424 85.0392 201.907 71.2084 202.274 68.5946C202.828 64.6567 202.913 61.2923 203.514 59.4368C203.855 58.3825 204.319 57.5229 204.588 57.2866C205.464 56.5151 205.122 60.3268 205.661 62.8068C206.465 66.5054 207.137 71.9165 207.938 75.7441C208.388 77.8984 209.346 79.6362 209.651 80.7505C210.282 83.0481 209.482 74.0928 209.617 69.6727C209.744 65.5007 210.42 60.4153 210.89 58.4653C211.064 57.7456 211.158 56.9215 211.592 56.3503C212.742 54.8383 214.105 61.1957 215.38 68.5212C215.969 71.906 216.522 74.7445 216.824 76.1535C217.012 77.0323 217.128 77.832 216.994 78.0361C215.786 79.8793 217.661 71.5584 218.031 64.7519C218.199 61.6628 218.534 60.0774 218.702 57.9604C218.761 57.2156 219.736 62.3181 220.541 67.0086C221.356 71.7594 222.154 77.2828 222.59 79.5708C223.048 81.9812 223.562 83.665 223.83 83.9687C224.162 84.3465 224.3 82.601 224.567 78.0462C224.802 74.0243 225.099 66.5219 225.403 63.3881C225.706 60.2544 225.972 61.7147 226.308 63.1307C227.43 67.8613 228.715 71.4418 229.595 73.8403C230.287 75.7262 230.936 77.9607 231.405 79.4672C231.605 80.1117 231.74 80.5091 231.809 78.8558C232.031 73.4895 231.744 69.0583 231.543 67.7881C231.153 65.3236 231.073 59.9808 231.306 56.5866C231.33 56.2358 231.539 55.9178 231.707 55.9792C232.31 56.1992 232.943 60.5018 233.949 66.0975C234.724 70.4125 235.293 74.2014 235.764 76.1866C235.931 76.8864 236.767 78.4253 237.537 80.6358C237.845 81.5182 237.976 81.9171 238.044 78.3056C238.113 74.6942 238.113 67.0609 238.212 62.8632C238.511 58.1344 238.849 56.9899 239.05 55.7861C239.118 55.1796 239.118 54.5822 239.319 53.7656" stroke="white" stroke-width="10" stroke-linecap="round"/>
<path d="M274.72 37.675C276.047 49.2244 276.798 56.3025 276.964 58.3773C277.193 61.2192 277.733 63.0749 278.203 65.6193C279.247 71.2588 279.945 72.5325 280.651 75.0095C281.261 77.1502 281.353 79.0977 282.093 80.8808C282.244 81.2458 282.295 81.5838 282.362 81.5224C282.429 81.4611 282.496 80.9964 282.53 75.3142C282.564 69.632 282.564 58.7464 282.531 52.9727C282.492 46.123 282.162 41.6676 282.726 39.5878C283.163 37.9769 284.419 48.0618 285 52.2154C285.746 57.5432 285.78 59.1265 286.314 60.4259C287.334 62.907 287.991 66.088 288.628 68.4664C289.852 73.0407 292.285 79.7715 292.319 80.747C292.324 80.8641 292.155 80.1959 292.086 74.9421C292.018 69.6884 292.018 59.8647 291.951 54.6381C291.864 47.7344 291.483 45.0568 291.381 42.7125C291.296 40.7453 290.678 38.6204 290.577 36.7769C290.492 35.2381 290.006 33.1956 290.139 31.1852C290.189 30.426 290.537 30.2369 290.707 30.3666C291.216 30.7547 291.875 36.4843 293.182 44.3931C293.741 47.7714 294.158 52.1852 294.962 58.2838C295.601 63.1251 296.306 67.1661 296.542 70.148C296.714 72.3153 297.312 74.6766 298.016 76.2546C298.327 76.9532 298.587 77.6977 298.921 77.8697C301.134 79.0095 299.794 73.4235 299.995 67.2978C300.155 62.4354 300.063 54.0035 300.03 49.4286C299.986 43.3749 299.661 41.372 299.228 39.9258C298.733 38.2746 298.253 35.6757 297.418 31.9626C297.057 30.3565 297.247 27.8031 297.413 26.736C297.579 25.669 297.911 26.1336 298.115 26.6717C298.856 28.6229 299.323 29.8909 299.959 33.2258C301.132 39.3793 301.672 43.9063 301.805 45.3726C302.275 50.5641 302.875 53.7461 303.18 56.2382C303.593 59.6142 304.15 62.1376 304.521 63.8503C304.891 65.563 306.085 69.9539 307.434 73.9002C307.807 74.9903 308.234 76.7283 308.44 77.3518C308.69 78.1099 308.58 74.9622 308.013 63.2479C307.796 58.7602 306.52 53.3397 306.007 50.0049C305.076 43.9534 304.959 41.5087 304.39 39.9599C303.643 37.9276 303.286 35.0079 303.047 32.8547C302.621 29.0037 303.078 23.3338 303.612 22.5272C303.813 22.2236 304.412 22.7826 304.684 23.2201C305.794 25.0015 305.824 28.8691 306.131 31.5664C306.323 33.2617 306.834 34.9838 307.502 37.6308C308.157 40.222 308.576 42.623 308.812 45.3093C308.967 47.0771 309.517 48.8624 310.051 52.2073C310.253 53.4718 310.253 55.2063 310.221 55.9294C310.189 56.6525 310.056 56.3206 309.988 51.271C309.919 46.2214 309.919 36.4641 309.952 31.2385C309.993 24.802 310.454 23.1346 310.755 21.96C310.923 21.6482 311.122 21.9137 311.225 22.2164C311.327 22.5191 311.327 22.851 311.327 23.193" stroke="white" stroke-width="10" stroke-linecap="round"/>
<path d="M42.7413 13.5136C42.4995 30.6801 42.6167 41.0951 43.1039 44.0204C43.513 46.4763 43.8403 54.232 43.6589 65.1526C43.5117 74.0232 42.0086 79.3005 41.036 83.3504C39.1337 91.271 41.2686 104.966 42.0067 107.591C43.4745 112.81 42.1331 122.052 41.8877 127.729C41.7939 129.898 41.2759 131.467 41.699 132.506C42.1834 133.695 51.94 132.573 68.9271 132.513C77.8146 132.481 87.244 132.332 92.5852 132.33C97.9264 132.328 98.8936 132.449 103.502 132.511C116.33 132.685 125.889 132.694 129.714 132.877C142.122 133.472 145.785 133.672 153.346 134.585C159.449 135.321 167.025 136.237 171.372 136.905C173.499 137.233 180.909 137.336 191.824 137.578C199.267 137.742 203.065 138.801 205.498 138.982C208.931 139.238 219.111 139.9 231.869 139.84C238.984 139.806 247.466 138.801 252.217 138.316C254.936 138.038 258.859 136.728 262.41 135.995C265.07 135.446 268.025 134.654 271.807 134.101C277.504 133.268 279.996 133.306 281.22 132.823C282.586 132.283 280.374 129.65 280.191 122.144C280.025 115.365 280.128 102.548 280.189 95.5238C280.271 85.9258 281.345 82.5243 281.958 78.98C282.678 74.822 283.909 71.6514 285.068 66.4109C285.4 64.9121 286.1 63.6066 286.411 55.6076C286.722 47.6086 286.722 32.9808 286.662 25.143C286.583 14.9682 285.136 12.1764 284.59 11.2606C283.309 9.11045 279.652 11.9236 273.635 12.6563C264.319 13.7907 257.423 12.9018 249.372 13.0849C242.049 13.2516 228.145 13.1472 220.076 13.0263C212.008 12.9054 210.194 12.6636 195.72 12.5391C181.246 12.4145 154.167 12.4145 139.914 12.2936C125.054 12.1676 123.105 11.6819 120.546 11.561C118.203 11.4503 113.965 10.9492 108.537 10.7678C98.0788 10.4184 85.1339 10.3337 82.3149 10.5224C79.3617 10.7201 75.001 9.3666 68.7293 9.42155C52.273 9.56574 49.1082 10.092 46.4138 10.8851C43.9685 11.4364 42.1368 11.6819 40.9187 11.7423C40.3051 11.8027 39.7007 11.9236 39.0779 11.6819" stroke="black" stroke-width="2" stroke-linecap="round"/>
<path d="M189.276 58.2066C189.884 65.8887 190.617 70.7573 191.835 74.3731C192.663 76.83 192.94 79.0805 193.121 80.5422C193.77 85.7735 206.85 82.8721 215.026 83.0553C222.113 83.2141 235.171 83.1176 242.381 83.2385C250.564 83.3757 254.213 83.8502 258.787 83.7898C266.784 83.6841 276.326 83.2421 280.053 82.9362C281.896 82.785 283.66 81.8977 289.175 81.7145C301.816 81.2947 310.772 81.5313 311.567 81.0459C313.498 79.867 310.534 69.6437 311.142 63.1027C311.405 60.2794 312.483 56.8804 312.914 51.6326C313.238 47.6758 314.564 43.9414 314.868 40.027C315.247 35.1495 315.297 30.995 315.905 26.4817C316.181 24.4303 316.029 21.0306 315.727 19.4077C315.425 17.7848 314.82 18.0266 314.146 18.3325C311.136 19.6988 307.017 20.9573 302.614 22.6022C297.198 24.6252 294.672 26.2106 289.796 29.0094C285.659 31.3838 283.315 32.3138 280.201 34.0209C277.029 35.7601 274.157 38.0433 270.07 40.4923C266.689 42.5185 263.899 44.2784 260.361 46.0496C256.78 47.8419 252.191 48.3081 246.87 50.2625C243.689 51.4309 239.245 52.4624 235.27 53.6237C231.486 54.7293 228.236 53.9314 226.897 54.175C217.817 55.8273 202.237 54.785 199.483 55.274C198.809 55.3968 198.083 55.5177 197.105 55.5799C196.127 55.6422 194.918 55.6422 193.672 55.6422" stroke="black" stroke-width="2" stroke-linecap="round"/>
<path d="M2.4436 25.9693C16.3461 28.1453 30.2487 30.3214 40.312 31.8655C56.1715 34.299 63.1238 35.3695 64.9519 35.7359C68.3259 36.412 72.0332 36.5931 76.9732 38.1738C81.8933 39.7482 86.6867 39.8901 89.742 41.6522C93.2766 43.6908 96.4533 44.8943 99.8767 45.5043C103.232 46.1021 105.736 47.9422 108.671 49.349C111.72 50.8109 115.019 51.7302 117.525 52.6479C118.181 52.8882 118.924 52.9538 119.419 53.3183C121.399 54.7773 121.254 58.4342 121.868 61.4326C123.366 68.7541 122.115 80.9127 121.63 82.1326C120.699 84.4721 116.148 82.3927 112.603 81.1069C107.859 79.3856 95.6986 79.4547 87.7015 78.8465C79.8917 78.2527 76.2241 79.0883 71.5808 78.8447C64.118 78.4532 61.4387 79.4547 58.3834 80.1232C54.6252 80.9456 50.9394 81.7699 46.7247 82.0795C43.4083 82.3231 40.4329 85.1915 35.9196 85.1347C29.77 85.0574 20.0425 83.9753 15.6483 84.0321C12.7191 84.0699 10.3931 84.5834 8.44056 84.2812C5.61155 83.8433 6.107 78.9784 5.68204 76.5331C5.19596 73.7362 3.79174 70.919 3.36128 66.8325C2.89703 62.4252 2.92718 57.3718 3.41808 47.6822C3.67293 42.6519 5.49154 40.1466 6.10516 37.3368C6.76989 34.293 7.4478 31.3545 7.9973 28.8487C8.42225 27.4493 9.03405 25.7348 9.644 23.9673C9.89127 23.1668 10.0122 22.5624 10.1367 21.5732" stroke="black" stroke-width="2" stroke-linecap="round"/>
<path d="M153.375 83.8504C146.122 86.0265 141.781 87.6311 140.623 88.7264C138.208 91.0113 138.114 95.185 138.171 101.717C138.198 104.828 141.272 107.281 143.233 109.73C145.015 111.955 148.84 111.934 151.535 112.302C154.264 112.675 157.39 110.476 160.872 109.254C162.243 108.773 164.472 107.19 166.974 104.446C168.477 102.798 168.516 100.471 168.458 98.2146C168.386 95.4471 165.846 92.7818 163.64 90.331C161.529 87.9846 160.585 85.5722 159.242 83.4914C158.91 82.9758 158.511 82.517 157.478 82.2679C156.445 82.0188 154.753 82.0188 153.518 82.0792C152.284 82.1397 151.558 82.2605 149.346 83.1178" stroke="black" stroke-width="2" stroke-linecap="round"/>
<path d="M242.989 51.617C241.178 61.8133 240.987 67.5008 241.746 70.8267C242.215 72.8789 242.795 75.3512 243.511 77.5956C244.121 79.5057 244.133 81.0788 244.37 82.0315C244.478 82.4709 245.078 82.6066 245.557 82.6566C247.471 82.8565 253.334 82.2289 257.903 82.751C260.751 83.0765 263.382 83.6594 265.631 84.4189C267.737 85.1306 269.682 85.5648 274.062 85.426C275.337 85.3856 275.601 83.8539 276.077 83.0457C277.705 80.2838 276.273 75.2768 275.607 72.6076C275.027 70.2887 274.745 65.9559 274.461 62.7817C273.978 57.3929 274.362 48.1953 274.744 45.9509C274.915 44.9475 275.032 43.4261 274.512 41.8526C273.996 40.2885 271.129 41.8841 269.032 42.698C266.772 43.5753 264.36 43.8867 262.735 45.0325C261.196 46.1179 259.399 46.7477 257.35 48.0365C255.633 49.1161 253.3 49.1337 251.293 49.8503C250.342 50.0892 249.194 50.2809 247.532 50.424C246.531 50.4726 245.209 50.4726 243.847 50.4726" stroke="black" stroke-width="2" stroke-linecap="round"/>
<path d="M43.0105 32.449C43.8688 44.0558 44.0576 50.7475 44.2493 53.989C44.4012 56.5584 45.8657 59.3246 46.1103 68.5568C46.21 72.3181 45.3965 74.5905 44.7299 76.9751C44.4296 78.0494 44.1549 80.3038 44.3437 83.1633C44.415 84.2432 44.9101 84.5122 45.2935 84.5165C47.2572 84.5385 49.2015 82.8071 51.0611 82.3737C53.2861 81.8551 55.3926 80.6099 58.4009 80.3238C62.3548 79.9478 67.2197 79.3683 70.032 78.8934C75.5446 77.9625 77.5247 78.51 78.7163 78.274C80.9917 77.8233 79.1555 72.7996 79.011 70.7926C78.9419 69.8334 78.7721 62.463 78.6305 51.643C78.5486 45.3856 77.725 42.9486 76.4476 37.9506C74.8183 31.5757 63.6607 37.5987 58.6612 36.8863C56.4595 36.5726 53.9907 35.9794 52.0768 34.6476C50.2672 33.3885 48.0743 33.4046 46.5452 32.3103C46.0688 32.0685 45.408 31.9741 44.8315 31.8311C44.255 31.688 43.7829 31.4992 43.0105 31.0186" stroke="black" stroke-width="2" stroke-linecap="round"/>
<path d="M256.722 47.6123C258.53 55.2252 259.297 62.6379 259.772 68.9906C259.973 71.687 259.869 76.3189 259.727 78.2772C259.586 80.2355 259.303 79.3858 259.157 78.3344C258.603 74.3434 258.438 72.0389 257.679 69.9833C256.586 67.0263 256.155 63.0842 255.816 58.5539C255.678 56.706 255.675 53.7747 255.579 52.5503C255.483 51.3258 255.389 51.8922 255.435 52.6089C255.634 55.7348 256.052 58.5639 257.194 63.8037C258.005 67.5264 258.53 70.391 258.962 73.6296C259.011 75.0543 259.011 77.3202 258.68 78.6763C258.35 80.0324 257.689 80.41 257.008 80.7991" stroke="black" stroke-width="2" stroke-linecap="round"/>
<path d="M59.8895 38.457C61.8893 43.3063 62.6531 47.8809 63.7002 53.6457C64.3308 57.1174 64.9419 65.8475 65.371 71.3963C65.5703 73.9733 65.8974 76.2098 65.7086 77.7376C65.6391 78.3 64.3754 76.988 63.5672 75.8494C59.5822 70.2351 61.9894 60.6864 61.7977 58.7768C61.5366 56.1753 61.8864 52.5843 62.131 47.1557C62.2492 44.5327 61.3199 42.0961 61.4144 40.0906C61.4719 38.8677 62.4586 43.8756 63.7002 53.6285C64.3863 59.0172 64.467 64.3599 64.7044 68.3423C64.8955 71.5468 65.8917 74.5791 65.9003 77.5502C65.9029 78.4418 63.5229 73.4891 62.0924 65.1309C60.1074 53.5325 61.4172 45.9956 61.1311 44.9971C60.5045 42.8101 59.9868 41.0376 59.8423 40.6041C58.9772 38.009 61.0339 45.6952 62.0309 50.8806C62.367 53.0306 62.7476 54.6613 63.1767 57.3163C63.3226 59.2159 63.3226 62.2371 63.6087 65.3497" stroke="black" stroke-width="2" stroke-linecap="round"/>
<path d="M254.433 51.9033C256.527 66.2852 257.861 72.0042 259.434 75.4473C260.657 78.123 261.108 81.0791 261.062 81.7957C261.049 82.0008 260.544 81.6627 260.35 81.0448C259.414 78.0738 259.491 75.4716 259.25 72.5607C259.011 69.8385 258.727 68.0247 258.298 65.374C258.152 63.1954 258.152 59.3246 258.152 55.3364" stroke="black" stroke-width="2" stroke-linecap="round"/>
<path d="M254.663 49.6221C255.591 54.0076 256.111 56.4776 255.985 56.6495C254.798 58.2709 253.599 53.3303 253.493 52.8416C253.441 52.6029 253.344 52.395 253.28 53.0875C253.215 53.7801 253.173 55.3825 253.404 57.2622C253.9 61.2876 254.79 64.519 255.023 66.3067C255.227 67.8608 255.471 69.293 255.579 70.4469C255.675 71.4715 255.854 72.4058 255.962 73.4709C256.197 75.7915 255.816 79.646 255.579 80.9647C255.482 81.5085 255.558 82.3601 255.621 82.9422C255.684 83.5242 255.811 83.8194 255.876 81.1672C255.941 78.5151 255.941 72.9067 256.004 69.9332C256.067 66.9597 256.194 66.791 256.452 66.2339" stroke="black" stroke-width="2" stroke-linecap="round"/>
</svg>
