<svg width="144" height="71" viewBox="0 0 144 71" fill="none" xmlns="http://www.w3.org/2000/svg">
<path d="M52.0919 66.7566H44.3356V41.9138L40.0488 42.4276V70.7774H56.3787V40.4702L52.0919 40.984V66.7566Z" fill="#F7DE1C"/>
<path d="M32.042 70.7767H36.3201V42.8755L32.042 43.3893V70.7767Z" fill="#F7DE1C"/>
<path d="M40.0504 0.000488281V18.4817H36.3201V0.000488281H32.042V29.8917L36.3201 30.1283V21.9724H40.0504V30.3321L44.3372 30.5687V4.02133H52.0935V31.0009L56.3803 31.2375V0.000488281H40.0504Z" fill="#F7DE1C"/>
<path d="M127.282 43.9356L124.534 66.715H120.247V70.7195H128.369V70.5809L131.516 44.4658L127.282 43.9356ZM127.082 0V21.9067H139.099V25.9764H129.421V26.1477L129.012 29.5405L143.368 28.7086V0H127.082ZM139.099 18.4893H131.368V4.01269H139.099V18.4893ZM139.099 45.42V70.7195H143.368V45.9665L139.099 45.42Z" fill="#F7DE1C"/>
<path d="M5.10417 47.7861L9.41707 47.2642L7.99103 70.435V70.7694H0V66.7404H3.939L5.10417 47.7861Z" fill="#F7DE1C"/>
<path d="M21.8772 0.000488281V30.4626L17.6078 30.2343V3.77665H12.1036L10.495 29.8346L6.22559 29.6063L8.05161 0.000488281L8.20813 0.00864415V0.000488281H21.8772Z" fill="#F7DE1C"/>
<path d="M17.6094 46.2853L21.8788 45.7715V70.7774H17.6094V46.2853Z" fill="#F7DE1C"/>
<path d="M104.875 41.1057V70.7767H100.588V40.5674L104.875 41.1057Z" fill="#F7DE1C"/>
<path d="M112.64 0.000488281V5.84824L104.875 15.986V0.000488281H100.588V31.1885L104.875 30.9438V21.9724L106.014 20.488L112.64 11.8428V30.4953L116.918 30.2424V0.000488281H112.64Z" fill="#F7DE1C"/>
<path d="M116.917 42.6232V70.7773H112.639V42.085L116.917 42.6232Z" fill="#F7DE1C"/>
<path d="M81.7964 0.000488281L78.8747 17.976H78.0226L75.101 0.000488281H66.5273V32.0286H70.8142V4.02133H71.4228L74.3445 21.9969H82.5616L85.4745 4.02133H86.0832V32.0286H90.37V0.000488281H81.7964Z" fill="#F7DE1C"/>
<path d="M70.7098 39.2637H66.5273V70.7779H70.7098V39.2637Z" fill="#F7DE1C"/>
<path d="M90.37 39.2637H86.1875V70.7779H90.37V39.2637Z" fill="#F7DE1C"/>
<path d="M88.7363 35.4044L84.2234 34.6296L82.0844 34.2626C81.0148 34.075 80.1714 33.292 79.9801 32.2888L79.5627 30.1765L78.7367 25.9436C78.6845 25.6581 78.241 25.6581 78.1888 25.9436L77.3628 30.1765L76.9454 32.2888C76.7454 33.292 75.9107 34.0831 74.8411 34.2626L72.7021 34.6296L68.1892 35.4044C67.8849 35.4533 67.8849 35.8693 68.1892 35.9182L72.676 36.7012L74.8151 37.0682C75.8846 37.2558 76.728 38.0387 76.9193 39.0419L77.3367 41.1543L78.1628 45.3872C78.2149 45.6726 78.6584 45.6726 78.7106 45.3872L79.5366 41.1543L79.954 39.0419C80.154 38.0387 80.9888 37.2476 82.0583 37.0682L84.2234 36.7012L88.7363 35.9264C89.0407 35.8693 89.0407 35.4615 88.7363 35.4044Z" fill="#F7DE1C"/>
</svg>
