<svg width="610" height="613" viewBox="0 0 610 613" fill="none" xmlns="http://www.w3.org/2000/svg">
<path d="M603.371 298.572L472.305 274.661L410.181 263.335C379.119 257.546 354.623 233.383 349.067 202.425L336.946 137.236L312.955 6.60696C311.44 -2.20232 298.56 -2.20232 297.045 6.60696L273.054 137.236L260.932 202.425C255.124 233.383 230.881 257.797 199.819 263.335L137.695 274.661L6.62906 298.572C-2.20969 300.082 -2.20969 312.918 6.62906 314.428L137.695 338.339L199.819 349.665C230.881 355.454 255.377 379.617 260.932 410.575L273.054 475.764L297.045 606.393C298.56 615.202 311.44 615.202 312.955 606.393L336.946 475.764L349.067 410.575C354.876 379.617 379.119 355.203 410.181 349.665L472.305 338.339L603.371 314.428C612.21 312.918 612.21 300.334 603.371 298.572Z" fill="#FF4431"/>
<path d="M279.619 338.672H271.894V312.298L267.625 312.844V342.941H283.889V310.766L279.619 311.311V338.672Z" fill="#F7DE1C"/>
<path d="M259.648 342.941H263.909V313.32L259.648 313.866V342.941Z" fill="#F7DE1C"/>
<path d="M267.624 267.802V287.422H263.909V267.802H259.648V299.535L263.909 299.787V291.128H267.624V300.003L271.894 300.254V272.07H279.619V300.713L283.888 300.964V267.802H267.624Z" fill="#F7DE1C"/>
<path d="M354.504 314.445L351.768 338.628H347.498V342.88H355.587V342.733L358.722 315.008L354.504 314.445ZM354.305 267.801V291.058H366.273V295.379H356.635V295.561L356.227 299.163L370.525 298.28V267.801H354.305ZM366.273 287.43H358.574V272.061H366.273V287.43ZM366.273 316.021V342.88H370.525V316.601L366.273 316.021Z" fill="#F7DE1C"/>
<path d="M232.82 318.532L237.115 317.978L235.695 342.577V342.932H227.736V338.655H231.659L232.82 318.532Z" fill="#F7DE1C"/>
<path d="M249.525 267.802V300.141L245.273 299.899V271.81H239.791L238.189 299.475L233.937 299.232L235.755 267.802L235.911 267.81V267.802H249.525Z" fill="#F7DE1C"/>
<path d="M245.273 316.939L249.526 316.394V342.941H245.273V316.939Z" fill="#F7DE1C"/>
<path d="M332.186 311.441V342.94H327.917V310.869L332.186 311.441Z" fill="#F7DE1C"/>
<path d="M339.92 267.802V274.01L332.186 284.772V267.802H327.917V300.912L332.186 300.652V291.128L333.321 289.552L339.92 280.374V300.176L344.181 299.907V267.802H339.92Z" fill="#F7DE1C"/>
<path d="M344.181 313.051V342.941H339.92V312.48L344.181 313.051Z" fill="#F7DE1C"/>
<path d="M309.202 267.802L306.293 286.885H305.444L302.534 267.802H293.995V301.804H298.265V272.07H298.871L301.781 291.154H309.964L312.866 272.07H313.472V301.804H317.741V267.802H309.202Z" fill="#F7DE1C"/>
<path d="M298.161 309.484H293.995V342.941H298.161V309.484Z" fill="#F7DE1C"/>
<path d="M317.742 309.484H313.576V342.941H317.742V309.484Z" fill="#F7DE1C"/>
<path d="M316.113 305.389L311.619 304.566L309.488 304.176C308.423 303.977 307.583 303.146 307.392 302.081L306.977 299.839L306.154 295.345C306.102 295.042 305.66 295.042 305.608 295.345L304.786 299.839L304.37 302.081C304.171 303.146 303.339 303.986 302.274 304.176L300.144 304.566L295.649 305.389C295.346 305.441 295.346 305.882 295.649 305.934L300.118 306.765L302.248 307.155C303.313 307.354 304.153 308.185 304.344 309.25L304.76 311.493L305.582 315.987C305.634 316.29 306.076 316.29 306.128 315.987L306.951 311.493L307.366 309.25C307.566 308.185 308.397 307.345 309.462 307.155L311.619 306.765L316.113 305.943C316.416 305.882 316.416 305.449 316.113 305.389Z" fill="#F7DE1C"/>
</svg>
