<svg width="88" height="89" viewBox="0 0 88 89" fill="none" xmlns="http://www.w3.org/2000/svg">
<path d="M87.0437 43.3489L68.1358 39.8773L59.1737 38.2329C54.6926 37.3924 51.1588 33.8843 50.3573 29.3896L48.6086 19.925L45.1476 0.959249C44.929 -0.31975 43.071 -0.31975 42.8524 0.959249L39.3914 19.925L37.6427 29.3896C36.8048 33.8843 33.3074 37.429 28.8263 38.2329L19.8642 39.8773L0.956324 43.3489C-0.318775 43.5682 -0.318775 45.4318 0.956324 45.6511L19.8642 49.1227L28.8263 50.7671C33.3074 51.6076 36.8412 55.1157 37.6427 59.6104L39.3914 69.075L42.8524 88.0407C43.071 89.3197 44.929 89.3197 45.1476 88.0407L48.6086 69.075L50.3573 59.6104C51.1952 55.1157 54.6926 51.571 59.1737 50.7671L68.1358 49.1227L87.0437 45.6511C88.3188 45.4318 88.3188 43.6047 87.0437 43.3489Z" fill="#F7DE1C"/>
</svg>
